<?xml version="1.0" standalone="no"?>
<!DOCTYPE svg PUBLIC "-//W3C//DTD SVG 20010904//EN"
 "http://www.w3.org/TR/2001/REC-SVG-20010904/DTD/svg10.dtd">
<svg version="1.0" xmlns="http://www.w3.org/2000/svg"
 width="36.000000pt" height="36.000000pt" viewBox="0 0 36.000000 36.000000"
 preserveAspectRatio="xMidYMid meet">
<metadata>
Created by potrace 1.16, written by Peter Selinger 2001-2019
</metadata>
<g transform="translate(0.000000,36.000000) scale(0.100000,-0.100000)"
fill="#000000" stroke="none">
<path d="M176 217 c22 -37 12 -44 -29 -18 -31 19 -35 19 -57 4 -22 -16 -23
-16 -18 5 10 35 -2 25 -22 -20 -25 -55 -25 -85 -1 -98 27 -14 41 -13 41 5 0 8
-4 15 -10 15 -5 0 -10 7 -10 15 0 25 29 75 44 75 7 0 33 -25 57 -55 24 -30 50
-57 57 -60 23 -9 47 12 75 63 29 54 37 89 12 56 -14 -19 -14 -19 -15 1 0 16
-4 14 -21 -12 -12 -18 -26 -33 -32 -33 -6 0 -29 19 -50 43 -24 27 -32 32 -21
14z"/>
</g>
</svg>
