<?xml version="1.0" standalone="no"?>
<!DOCTYPE svg PUBLIC "-//W3C//DTD SVG 20010904//EN"
 "http://www.w3.org/TR/2001/REC-SVG-20010904/DTD/svg10.dtd">
<svg version="1.0" xmlns="http://www.w3.org/2000/svg"
 width="36.000000pt" height="36.000000pt" viewBox="0 0 36.000000 36.000000"
 preserveAspectRatio="xMidYMid meet">
<metadata>
Created by potrace 1.16, written by Peter Selinger 2001-2019
</metadata>
<g transform="translate(0.000000,36.000000) scale(0.018750,-0.018750)"
fill="#000000" stroke="none">
<path d="M1513 1423 c-12 -2 -27 -11 -33 -18 -10 -12 -7 -17 15 -25 14 -5 31
-10 36 -10 19 0 60 -34 75 -61 32 -62 7 -143 -96 -314 -57 -95 -128 -171 -178
-192 -29 -12 -36 -12 -62 4 -16 9 -65 58 -107 108 -244 284 -399 459 -428 480
-75 58 -170 19 -266 -111 -47 -64 -139 -215 -178 -292 -85 -169 -116 -363 -68
-432 42 -63 115 -96 184 -84 47 9 49 31 4 54 -21 10 -51 34 -66 52 -41 48 -33
116 28 242 90 187 185 296 256 296 29 0 89 -57 178 -169 153 -191 324 -386
377 -429 51 -40 95 -53 140 -41 118 33 362 428 411 667 26 126 1 204 -81 249
-41 23 -103 35 -141 26z m-810 -27 c18 -7 46 -29 64 -47 39 -42 303 -371 303
-379 0 -3 -38 -4 -85 -4 l-84 2 -72 61 c-39 34 -88 70 -109 81 -21 11 -41 24
-45 30 -3 5 -24 10 -46 10 -51 0 -135 -55 -197 -129 -34 -40 -49 -51 -73 -51
-41 0 -38 17 19 130 111 217 189 303 280 309 7 1 27 -5 45 -13z m948 -12 c38
-19 67 -59 75 -102 13 -66 -29 -223 -76 -291 -13 -18 -28 -24 -67 -27 l-51 -4
34 72 c79 162 90 222 53 288 -12 21 -37 46 -55 56 -23 13 -30 21 -21 26 15 10
72 1 108 -18z"/>
</g>
</svg>
